<svg xmlns="http://www.w3.org/2000/svg" width="2001" height="2001" viewBox="0 0 2001 2001"><g transform="translate(-847 -143)"><rect width="2001" height="2001" rx="189" transform="translate(847 143)" fill="#2f3136"/><g transform="translate(1298.556 577.184)"><line y1="389.218" x2="676.9" transform="translate(177.798 177.426)" fill="none" stroke="#fff" stroke-width="10"/><line x1="685.37" y1="453.109" transform="translate(169.328 570.442)" fill="none" stroke="#606fe4" stroke-width="10"/><g transform="translate(-0.136 405.32)"><ellipse cx="170" cy="169.5" rx="170" ry="169.5" transform="translate(-0.42 0.495)" fill="#fff" opacity="0.179"/><circle cx="84" cy="84" r="84" transform="translate(85.58 85.495)" fill="#fff"/></g><g transform="translate(676.696 0.316)"><ellipse cx="170" cy="168.5" rx="170" ry="168.5" transform="translate(-0.252 0.5)" fill="#da5e76" opacity="0.313"/><ellipse cx="84" cy="85" rx="84" ry="85" transform="translate(85.748 83.5)" fill="#da5e76"/></g><g transform="translate(676.696 844.987)"><ellipse cx="170" cy="169.5" rx="170" ry="169.5" transform="translate(-0.252 -0.172)" fill="#606fe4" opacity="0.411"/><ellipse cx="84" cy="85" rx="84" ry="85" transform="translate(85.748 85.828)" fill="#5e73e4"/></g></g></g></svg>